<?xml version="1.0" encoding="UTF-8"?>
<!DOCTYPE svg PUBLIC "-//W3C//DTD SVG 1.1//EN" "http://www.w3.org/Graphics/SVG/1.1/DTD/svg11.dtd">
<!-- Creator: CorelDRAW 2020 (64-Bit) -->
<svg xmlns="http://www.w3.org/2000/svg" xml:space="preserve" width="9.08514in" height="3.55588in" version="1.1" style="shape-rendering:geometricPrecision; text-rendering:geometricPrecision; image-rendering:optimizeQuality; fill-rule:evenodd; clip-rule:evenodd"
viewBox="0 0 947.31 370.77"
 xmlns:xlink="http://www.w3.org/1999/xlink"
 xmlns:xodm="http://www.corel.com/coreldraw/odm/2003">
 <defs>
  <style type="text/css">
   <![CDATA[
    .fil2 {fill:#50C0E6}
    .fil3 {fill:#18A8E0}
    .fil1 {fill:#2A76BB}
    .fil0 {fill:#364981}
    .fil4 {fill:#18A8E0;fill-rule:nonzero}
    .fil5 {fill:#364981;fill-rule:nonzero}
   ]]>
  </style>
 </defs>
 <g id="Layer_x0020_1">
  <metadata id="CorelCorpID_0Corel-Layer"/>
  <g id="_2860063597760">
   <polygon class="fil0" points="141.66,356.64 283.37,93.15 283.31,263.61 "/>
   <polygon class="fil1" points="-0,263.6 283.32,263.6 141.66,356.64 "/>
   <polygon class="fil2" points="-0,93.03 283.32,93.03 141.66,0 "/>
   <polygon class="fil3" points="141.66,0 -0,263.47 0.06,93.02 "/>
   <path class="fil4" d="M526.19 186.49c0,33.59 -7.62,58.58 -22.82,74.9 -15.24,16.32 -38.7,24.45 -70.38,24.45 -29.6,0 -52.02,-8.13 -67.36,-24.45 -15.29,-16.32 -22.97,-40.92 -22.97,-73.75l0 -114.98 62.96 0 0 117.37c0,13.43 2.47,23.75 7.47,31.04 5,7.24 12.13,10.88 21.43,10.88 9.35,0 16.48,-3.4 21.38,-10.23 4.9,-6.84 7.32,-16.92 7.32,-30.24l0 -118.82 62.96 0 0 113.83z"/>
   <path class="fil5" d="M878.88 283.56l-9.21 -38.86 -62.45 0 -9.91 38.86 -68.13 0 72.06 -210.9 78.24 0 67.83 210.9 -68.43 0zm-39.79 -165.1l-1.45 0c-0.2,2.36 -0.85,6.23 -2.04,11.59 -1.15,5.43 -7.07,28.57 -17.68,69.45l40.04 0 -14.59 -57.35c-2.04,-8.43 -3.49,-16.36 -4.28,-23.7z"/>
   <path class="fil1" d="M552.03 73.24c29.19,-0.16 58.38,-0.37 87.56,-0.48l14.31 -0.08c20.08,-0.14 35.09,3.3 45.11,10.46 14.87,10.61 22.43,25.36 22.54,44.43 0,11.03 -3.18,20.8 -9.67,29.38 -6.4,8.59 -14.87,14.07 -25.51,16.56l0 0.72c12.28,2.12 22.09,7.49 29.52,16.05 7.45,8.58 11.22,19.05 11.34,31.43 0.11,22.52 -6.85,38.93 -21.01,49.28 -11,8.11 -30.13,12.15 -57.63,12.38 -0.86,0 -10.32,0 -10.32,0l-86.24 0.45 0 -210.57zm87.26 163.1c8.95,0 15.09,-1.44 18.52,-4.05 5.08,-4.18 7.57,-9.06 7.57,-14.88 -0.14,-7.62 -3.43,-13.11 -10.17,-16.31 -4.92,-2.55 -12.73,-2.74 -18.65,-2.74l-25.28 0.13 0.26 38.08c9.18,-0.08 18.71,-0.23 27.75,-0.23zm15.58 -86.91c4.12,-3.93 6.14,-8.56 6.01,-13.8 0,-11.32 -7.56,-17.13 -22.55,-17.77l-0.64 0c-8.96,0 -17.92,0.1 -26.88,0.16l0.25 35.69 25.85 -0.21c5.46,0 14.21,-0.45 17.96,-4.08z"/>
   <path class="fil0" d="M358.06 370.19m29.44 -41.55l0 28.17c0,4.5 -1.33,7.95 -4.12,10.34 -2.72,2.39 -6.32,3.62 -10.72,3.62 -4.35,0 -7.88,-1.23 -10.61,-3.62 -2.67,-2.4 -4,-5.85 -4,-10.34l0 -28.17 3.36 0 0 28.11c0,3.56 1.04,6.25 3.13,8.18 2.09,1.93 4.75,2.92 8.12,2.92 3.42,0 6.14,-0.99 8.29,-2.86 2.14,-1.93 3.19,-4.67 3.19,-8.24l0 -28.11 3.36 0zm9.16 41.55m3.02 -30.85l0.29 5.38c0.98,-1.93 2.32,-3.39 4,-4.38 1.68,-1.05 3.65,-1.58 5.91,-1.58 3.36,0 5.85,1 7.59,3.04 1.74,2.04 2.61,5.26 2.61,9.58l0 18.81 -3.42 0 0 -18.81c0,-3.51 -0.64,-6.02 -1.91,-7.48 -1.33,-1.52 -3.19,-2.22 -5.62,-2.22 -2.37,0 -4.29,0.64 -5.79,1.87 -1.51,1.28 -2.61,2.98 -3.25,5.08l0 21.56 -3.42 0 0 -30.85 3.02 0zm29.73 30.85m3.36 0l-3.36 0 0 -30.85 3.36 0 0 30.85zm0 -39.73l-3.36 0 0 -4.79 3.36 0 0 4.79zm5.97 39.73m8.7 -38.74l0 7.89 6.72 0 0 2.81 -6.72 0 0 20.16c0,1.98 0.35,3.45 1.1,4.27 0.7,0.88 1.68,1.28 2.9,1.28 0.52,0 1.1,0 1.56,-0.06 0.52,-0.06 1.16,-0.18 1.8,-0.23l0.52 2.45c-0.58,0.24 -1.22,0.47 -2.03,0.58 -0.81,0.12 -1.62,0.18 -2.43,0.18 -2.15,0 -3.83,-0.7 -5.04,-2.04 -1.22,-1.4 -1.8,-3.56 -1.8,-6.49l0 -20.1 -5.27 0 0 -2.81 5.27 0 0 -7.89 3.42 0zm12.05 38.74m13.33 0.58c-3.83,0 -7.01,-1.4 -9.5,-4.27 -2.55,-2.86 -3.83,-6.49 -3.83,-10.87l0 -1.58c0,-4.38 1.27,-8.06 3.77,-10.92 2.55,-2.92 5.56,-4.39 9.16,-4.39 3.77,0 6.72,1.17 8.87,3.57 2.14,2.4 3.25,5.61 3.25,9.58l0 2.92 -21.62 0 0 0.82c0,3.45 0.87,6.37 2.72,8.71 1.85,2.34 4.23,3.5 7.19,3.5 2.14,0 3.94,-0.29 5.45,-0.88 1.45,-0.58 2.72,-1.46 3.83,-2.57l1.45 2.34c-1.16,1.23 -2.61,2.22 -4.41,2.92 -1.74,0.76 -3.89,1.11 -6.32,1.11zm-0.41 -29.1c-2.49,0 -4.58,0.94 -6.32,2.86 -1.68,1.93 -2.67,4.33 -2.96,7.19l0.06 0.18 17.97 0 0 -0.88c0,-2.63 -0.81,-4.85 -2.38,-6.66 -1.56,-1.81 -3.71,-2.69 -6.37,-2.69zm17.45 28.52m0 -15.19c0,-4.91 1.04,-8.88 3.13,-11.8 2.03,-2.98 4.93,-4.44 8.64,-4.44 2.14,0 4,0.47 5.56,1.34 1.56,0.94 2.84,2.22 3.89,3.92l0 -18.35 3.36 0 0 44.53 -3.02 0 -0.29 -4.5c-0.98,1.63 -2.32,2.92 -3.88,3.74 -1.62,0.94 -3.54,1.34 -5.68,1.34 -3.65,0 -6.55,-1.4 -8.58,-4.15 -2.09,-2.75 -3.13,-6.43 -3.13,-11.04l0 -0.58zm3.42 0.58c0,3.74 0.75,6.72 2.2,8.94 1.51,2.22 3.71,3.33 6.72,3.33 2.14,0 4,-0.53 5.45,-1.52 1.45,-0.99 2.61,-2.34 3.42,-4.09l0 -14.55c-0.75,-1.75 -1.86,-3.22 -3.31,-4.33 -1.39,-1.17 -3.25,-1.7 -5.5,-1.7 -3.02,0 -5.22,1.23 -6.72,3.68 -1.51,2.51 -2.26,5.73 -2.26,9.64l0 0.58zm45.21 14.61m0 0l0 -41.55 12.06 0c4.29,0 7.59,0.88 9.97,2.75 2.43,1.81 3.59,4.56 3.59,8.18 0,2.16 -0.58,3.97 -1.8,5.55 -1.16,1.64 -2.84,2.69 -4.87,3.33 2.49,0.47 4.52,1.64 6.08,3.56 1.56,1.93 2.38,4.09 2.38,6.6 0,3.74 -1.22,6.61 -3.6,8.59 -2.38,1.99 -5.56,2.98 -9.56,2.98l-14.26 0zm3.36 -19.98l0 17.06 10.9 0c3.01,0 5.45,-0.76 7.13,-2.28 1.74,-1.46 2.61,-3.56 2.61,-6.31 0,-2.45 -0.75,-4.5 -2.32,-6.08 -1.62,-1.58 -3.88,-2.39 -6.9,-2.39l-11.42 0zm0 -2.92l9.5 0c2.96,0 5.27,-0.64 6.9,-1.98 1.68,-1.34 2.49,-3.27 2.49,-5.84 0,-2.63 -0.87,-4.62 -2.61,-5.9 -1.74,-1.34 -4.29,-1.99 -7.59,-1.99l-8.7 0 0 15.72zm30.08 22.91m20.98 0c-0.23,-1.05 -0.41,-1.99 -0.52,-2.75 -0.06,-0.76 -0.12,-1.52 -0.12,-2.28 -1.16,1.58 -2.67,2.92 -4.52,4.03 -1.91,1.05 -4,1.58 -6.37,1.58 -2.96,0 -5.27,-0.82 -6.96,-2.4 -1.62,-1.58 -2.49,-3.74 -2.49,-6.43 0,-2.86 1.22,-5.14 3.71,-6.84 2.43,-1.69 5.74,-2.57 9.85,-2.57l6.78 0 0 -3.8c0,-2.22 -0.69,-3.97 -2.09,-5.2 -1.45,-1.23 -3.42,-1.87 -5.91,-1.87 -2.38,0 -4.35,0.58 -5.91,1.81 -1.51,1.17 -2.32,2.63 -2.32,4.33l-3.13 0 -0.06 -0.18c-0.06,-2.28 0.98,-4.33 3.13,-6.19 2.2,-1.81 5.04,-2.69 8.41,-2.69 3.36,0 6.08,0.88 8.17,2.57 2.03,1.75 3.07,4.21 3.07,7.48l0 15.13c0,1.11 0.06,2.16 0.17,3.22 0.12,0.99 0.35,2.04 0.64,3.04l-3.54 0zm-11.13 -2.34c2.43,0 4.58,-0.58 6.43,-1.75 1.85,-1.17 3.25,-2.69 4.06,-4.5l0 -6.43 -6.84 0c-3.07,0 -5.51,0.64 -7.36,1.98 -1.85,1.34 -2.78,2.98 -2.78,4.97 0,1.69 0.58,3.04 1.74,4.15 1.16,1.05 2.73,1.58 4.75,1.58zm22.89 2.34m3.02 -30.85l0.29 5.38c0.98,-1.93 2.32,-3.39 4,-4.38 1.68,-1.05 3.65,-1.58 5.91,-1.58 3.36,0 5.85,1 7.59,3.04 1.74,2.04 2.61,5.26 2.61,9.58l0 18.81 -3.42 0 0 -18.81c0,-3.51 -0.64,-6.02 -1.91,-7.48 -1.33,-1.52 -3.19,-2.22 -5.62,-2.22 -2.37,0 -4.29,0.64 -5.79,1.87 -1.51,1.28 -2.61,2.98 -3.25,5.08l0 21.56 -3.42 0 0 -30.85 3.02 0zm29.32 30.85m7.3 -15.02l-3.94 0 0 15.02 -3.36 0 0 -44.53 3.36 0 0 26.59 3.59 0 11.36 -12.92 3.94 0 0.06 0.12 -12.23 13.96 13.5 16.59 -0.06 0.18 -3.88 0 -12.35 -15.02zm33.32 15.02m0 -15.89c0,-4.56 1.22,-8.3 3.65,-11.16 2.49,-2.92 5.8,-4.39 9.85,-4.39 4.12,0 7.36,1.46 9.85,4.39 2.44,2.86 3.71,6.6 3.71,11.16l0 0.93c0,4.56 -1.22,8.3 -3.71,11.22 -2.43,2.86 -5.74,4.33 -9.79,4.33 -4.11,0 -7.42,-1.46 -9.91,-4.33 -2.43,-2.92 -3.65,-6.66 -3.65,-11.22l0 -0.93zm3.36 0.93c0,3.57 0.93,6.55 2.67,9 1.8,2.4 4.35,3.62 7.53,3.62 3.13,0 5.62,-1.23 7.42,-3.62 1.79,-2.45 2.72,-5.43 2.72,-9l0 -0.93c0,-3.51 -0.93,-6.49 -2.72,-8.94 -1.8,-2.45 -4.29,-3.68 -7.48,-3.68 -3.19,0 -5.68,1.23 -7.48,3.68 -1.74,2.46 -2.67,5.44 -2.67,8.94l0 0.93zm28.17 14.96m5.1 0l0 -28.05 -5.1 0 0 -2.81 5.1 0 0 -4.5c0,-3.1 0.75,-5.55 2.32,-7.25 1.5,-1.7 3.65,-2.51 6.43,-2.51 0.64,0 1.27,0.06 1.91,0.12 0.64,0.12 1.28,0.24 1.91,0.41l-0.4 2.75c-0.46,-0.12 -0.93,-0.18 -1.39,-0.24 -0.46,-0.12 -1.04,-0.12 -1.68,-0.12 -1.85,0 -3.25,0.58 -4.23,1.75 -0.98,1.23 -1.51,2.86 -1.51,5.03l0 4.56 7.3 0 0 2.81 -7.3 0 0 28.05 -3.36 0zm27.13 0m26.6 -11.57l-18.84 0 -4.29 11.57 -3.48 0 15.65 -41.55 3.19 0 15.53 41.55 -3.54 0 -4.23 -11.57zm-17.74 -3.04l16.63 0 -8.17 -22.5 -0.17 0 -8.29 22.5zm31.35 14.61m3.36 0l-3.36 0 0 -44.53 3.36 0 0 44.53zm9.33 0m24.69 -14.61c0,4.62 -1.04,8.3 -3.13,11.04 -2.03,2.75 -4.93,4.15 -8.58,4.15 -2.2,0 -4.17,-0.47 -5.8,-1.34 -1.62,-0.94 -2.9,-2.22 -3.94,-3.91l-0.35 4.67 -2.9 0 0 -44.53 3.36 0 0 18.52c1.04,-1.75 2.32,-3.1 3.94,-4.03 1.56,-0.94 3.48,-1.4 5.62,-1.4 3.71,0 6.61,1.46 8.64,4.44 2.09,2.92 3.13,6.89 3.13,11.8l0 0.58zm-3.42 -0.58c0,-3.91 -0.75,-7.13 -2.26,-9.64 -1.5,-2.45 -3.77,-3.68 -6.72,-3.68 -2.37,0 -4.23,0.58 -5.68,1.76 -1.45,1.22 -2.55,2.69 -3.25,4.56l0 14.02c0.75,1.76 1.91,3.22 3.42,4.27 1.51,1.05 3.36,1.58 5.56,1.58 2.96,0 5.22,-1.11 6.66,-3.33 1.51,-2.22 2.26,-5.2 2.26,-8.94l0 -0.58zm9.45 15.19m20.98 0c-0.23,-1.05 -0.41,-1.99 -0.52,-2.75 -0.06,-0.76 -0.11,-1.52 -0.11,-2.28 -1.16,1.58 -2.67,2.92 -4.52,4.03 -1.91,1.05 -4,1.58 -6.37,1.58 -2.96,0 -5.27,-0.82 -6.96,-2.4 -1.62,-1.58 -2.49,-3.74 -2.49,-6.43 0,-2.86 1.22,-5.14 3.71,-6.84 2.43,-1.69 5.74,-2.57 9.85,-2.57l6.78 0 0 -3.8c0,-2.22 -0.69,-3.97 -2.09,-5.2 -1.45,-1.23 -3.42,-1.87 -5.91,-1.87 -2.38,0 -4.35,0.58 -5.91,1.81 -1.51,1.17 -2.32,2.63 -2.32,4.33l-3.13 0 -0.06 -0.18c-0.06,-2.28 0.98,-4.33 3.13,-6.19 2.2,-1.81 5.04,-2.69 8.41,-2.69 3.36,0 6.08,0.88 8.17,2.57 2.03,1.75 3.07,4.21 3.07,7.48l0 15.13c0,1.11 0.06,2.16 0.17,3.22 0.12,0.99 0.35,2.04 0.64,3.04l-3.54 0zm-11.13 -2.34c2.43,0 4.58,-0.58 6.43,-1.75 1.85,-1.17 3.25,-2.69 4.06,-4.5l0 -6.43 -6.84 0c-3.07,0 -5.51,0.64 -7.36,1.98 -1.85,1.34 -2.78,2.98 -2.78,4.97 0,1.69 0.58,3.04 1.74,4.15 1.16,1.05 2.73,1.58 4.75,1.58zm22.89 2.34m3.02 -30.85l0.29 5.38c0.98,-1.93 2.32,-3.39 4,-4.38 1.68,-1.05 3.65,-1.58 5.91,-1.58 3.36,0 5.85,1 7.59,3.04 1.74,2.04 2.61,5.26 2.61,9.58l0 18.81 -3.42 0 0 -18.81c0,-3.51 -0.64,-6.02 -1.91,-7.48 -1.33,-1.52 -3.19,-2.22 -5.62,-2.22 -2.37,0 -4.29,0.64 -5.79,1.87 -1.51,1.28 -2.61,2.98 -3.25,5.08l0 21.56 -3.42 0 0 -30.85 3.02 0zm29.73 30.85m3.36 0l-3.36 0 0 -30.85 3.36 0 0 30.85zm0 -39.73l-3.36 0 0 -4.79 3.36 0 0 4.79zm7.77 39.73m20.98 0c-0.23,-1.05 -0.41,-1.99 -0.52,-2.75 -0.06,-0.76 -0.12,-1.52 -0.12,-2.28 -1.16,1.58 -2.67,2.92 -4.52,4.03 -1.91,1.05 -4,1.58 -6.37,1.58 -2.96,0 -5.27,-0.82 -6.96,-2.4 -1.62,-1.58 -2.49,-3.74 -2.49,-6.43 0,-2.86 1.22,-5.14 3.71,-6.84 2.43,-1.69 5.74,-2.57 9.85,-2.57l6.78 0 0 -3.8c0,-2.22 -0.69,-3.97 -2.09,-5.2 -1.45,-1.23 -3.42,-1.87 -5.91,-1.87 -2.38,0 -4.35,0.58 -5.91,1.81 -1.51,1.17 -2.32,2.63 -2.32,4.33l-3.13 0 -0.06 -0.18c-0.06,-2.28 0.98,-4.33 3.13,-6.19 2.2,-1.81 5.04,-2.69 8.41,-2.69 3.36,0 6.08,0.88 8.17,2.57 2.03,1.75 3.07,4.21 3.07,7.48l0 15.13c0,1.11 0.06,2.16 0.17,3.22 0.11,0.99 0.35,2.04 0.64,3.04l-3.54 0zm-11.13 -2.34c2.43,0 4.58,-0.58 6.43,-1.75 1.85,-1.17 3.25,-2.69 4.06,-4.5l0 -6.43 -6.84 0c-3.07,0 -5.51,0.64 -7.36,1.98 -1.85,1.34 -2.78,2.98 -2.78,4.97 0,1.69 0.58,3.04 1.74,4.15 1.16,1.05 2.73,1.58 4.75,1.58z"/>
  </g>
 </g>
</svg>
